# xmcd CD database file
#
# Track frame offsets:
#	150
#	11759
#	37866
#	62672
#	91384
#	101713
#	111478
#	145970
#	157330
#	194192
#	209885
#
# Disc length: 3100 seconds
#
# Revision: 0
# Processed by: cddbd v1.5.1PL2 Copyright (c) Steve Scherf et al.
# Submitted via: CDex 1.50beta8
#
DISCID=ad0c1a0b
DTITLE=Giorgio Pacorig trio - My mind is on the table
DYEAR=2003
DGENRE=Jazz
TTITLE0=Where is my mind?
TTITLE1=The legendary Hasaan
TTITLE2=Whale dance
TTITLE3=Downtown
TTITLE4=Sabotage
TTITLE5=Shhh...
TTITLE6=Peace
TTITLE7=Fastair
TTITLE8=L'orso
TTITLE9=Melancholique
TTITLE10=WRU
EXTD=YEAR: 2003
EXTT0=
EXTT1=
EXTT2=
EXTT3=
EXTT4=
EXTT5=
EXTT6=
EXTT7=
EXTT8=
EXTT9=
EXTT10=
PLAYORDER=
